<svg version="1.1" id="Layer_1" xmlns="http://www.w3.org/2000/svg" xmlns:xlink="http://www.w3.org/1999/xlink" x="0px" y="0px"
	 width="100%" viewBox="0 0 457 206" enable-background="new 0 0 457 206" xml:space="preserve">
<path fill="#FEFEFE" opacity="1.000000" stroke="none" 
	d="
M317.000000,207.000000 
	C211.333374,207.000000 106.166740,207.000000 1.000085,207.000000 
	C1.000057,138.333389 1.000057,69.666794 1.000028,1.000140 
	C153.333221,1.000093 305.666443,1.000093 457.999756,1.000047 
	C457.999817,69.666527 457.999817,138.333054 457.999908,206.999786 
	C411.166656,207.000000 364.333344,207.000000 317.000000,207.000000 
M78.335220,53.865528 
	C75.683258,50.987766 74.572678,54.131012 73.330688,55.362980 
	C57.596287,70.970596 41.943214,86.660248 26.284962,102.344505 
	C25.277115,103.354034 24.396833,104.490913 24.186405,104.732246 
	C31.248604,111.803520 38.003040,118.566643 45.579098,126.152435 
	C50.532665,121.060043 55.934559,115.506767 61.734749,109.544037 
	C61.734749,126.104935 61.734749,142.311386 61.734749,158.712585 
	C71.773590,158.712585 81.340492,158.712585 91.510010,158.712585 
	C91.510010,142.242584 91.510010,126.052094 91.510010,109.861603 
	C92.068878,109.503654 92.627739,109.145706 93.186607,108.787758 
	C98.425537,114.693611 103.664467,120.599464 108.444420,125.987907 
	C115.896454,118.557571 122.596603,111.876930 129.623703,104.870285 
	C112.884148,88.206421 95.886131,71.285286 78.335220,53.865528 
M202.033493,124.560112 
	C204.631042,119.463120 209.179932,114.473885 209.468430,109.249374 
	C210.418625,92.042343 209.826141,74.750122 209.826141,57.275505 
	C206.787781,57.275505 203.513062,57.275505 199.659348,57.275505 
	C199.659348,59.316933 199.672272,61.269806 199.657288,63.222469 
	C199.550095,77.197441 199.928284,91.198959 199.173187,105.139015 
	C198.552307,116.601151 191.846588,122.431519 181.302460,122.445732 
	C170.309418,122.460548 163.954086,116.767799 162.640900,105.307686 
	C162.169754,101.195930 162.363205,97.001625 162.352280,92.844734 
	C162.321304,81.051369 162.341431,69.257874 162.341431,57.265961 
	C158.651810,57.265961 155.372940,57.265961 152.064316,57.265961 
	C151.869049,57.806637 151.556503,58.267750 151.557297,58.728336 
	C151.584030,74.367569 151.333847,90.016052 151.807205,105.642479 
	C152.093094,115.079430 156.054581,123.042114 164.700241,127.882469 
	C174.469452,133.351868 193.317001,132.955521 202.033493,124.560112 
M239.674026,82.047989 
	C237.209991,82.996964 234.745956,83.945938 232.268890,84.899925 
	C230.266495,81.612099 227.737137,81.122215 221.561432,82.814377 
	C221.561432,107.070908 221.561432,131.286865 221.561432,155.493805 
	C224.926102,155.493805 227.875610,155.493805 231.349045,155.493805 
	C231.349045,150.810577 231.349045,146.349594 231.349045,141.888626 
	C231.349045,137.289001 231.349045,132.689392 231.349045,127.882278 
	C247.208084,133.517349 256.241302,132.001373 263.984131,122.727707 
	C270.416199,115.023949 271.314484,102.328453 266.076080,93.162056 
	C260.997375,84.275139 251.474518,80.087250 239.674026,82.047989 
M348.635345,131.638702 
	C356.069153,131.277481 363.177734,130.170120 368.064423,123.151917 
	C365.804016,121.103294 363.628998,119.132065 361.346741,117.063660 
	C356.166931,122.711967 350.020996,124.836151 342.836121,122.052414 
	C337.686676,120.057289 334.378448,116.364243 334.126923,109.908844 
	C346.866150,109.908844 359.415009,109.908844 371.882385,109.908844 
	C371.882385,107.200615 372.049225,105.025330 371.855042,102.882774 
	C370.683624,89.958809 362.645874,82.279320 349.390259,81.309357 
	C337.301758,80.424789 326.795715,87.847626 324.345337,99.624184 
	C320.828186,116.527809 329.936279,130.979736 348.635345,131.638702 
M301.763245,102.771667 
	C298.875244,102.022018 295.740601,101.736282 293.178192,100.374161 
	C291.171967,99.307701 289.874664,96.907623 288.262390,95.100075 
	C290.280914,93.423058 292.344513,90.299515 294.308868,90.360733 
	C298.834381,90.501770 303.311676,92.190277 308.357941,93.380486 
	C309.402710,92.334015 311.445953,90.287422 313.536804,88.193153 
	C308.900970,83.540512 303.152161,81.622269 296.861816,81.246201 
	C288.378265,80.739021 280.832886,86.240944 279.768890,93.462326 
	C278.632751,101.173386 282.669525,106.502342 291.766754,109.124908 
	C294.639587,109.953102 297.613068,110.431473 300.487549,111.254807 
	C303.377777,112.082657 307.164276,113.073395 306.164215,116.790245 
	C305.557251,119.046097 302.625397,121.430466 300.213745,122.295341 
	C294.572021,124.318604 289.600403,121.862160 285.328094,118.073112 
	C283.077820,120.209236 281.044861,122.139046 278.937225,124.139778 
	C283.732605,128.956955 289.311188,131.115204 295.621582,131.490723 
	C305.041321,132.051270 313.843140,126.438171 315.001160,119.231270 
	C316.304382,111.120605 312.124054,105.668739 301.763245,102.771667 
M393.073608,73.500656 
	C393.073608,67.435616 393.073608,61.370575 393.073608,55.399632 
	C389.310181,55.399632 386.371887,55.399632 383.185547,55.399632 
	C383.185547,80.487518 383.185547,105.338249 383.185547,130.449005 
	C386.444031,130.449005 389.511047,130.449005 393.073486,130.449005 
	C393.073486,111.651726 393.073486,93.076103 393.073608,73.500656 
M408.832489,61.601204 
	C408.832489,84.495621 408.832489,107.390038 408.832489,130.424133 
	C412.491760,130.424133 415.560059,130.424133 418.723938,130.424133 
	C418.723938,105.277000 418.723938,80.415367 418.723938,55.453537 
	C415.377258,55.453537 412.315735,55.453537 408.832489,55.453537 
	C408.832489,57.373150 408.832489,59.003490 408.832489,61.601204 
z"/>
<path fill="#01ADB5" opacity="1.000000" stroke="none" 
	d="
M78.611671,54.114838 
	C95.886131,71.285286 112.884148,88.206421 129.623703,104.870285 
	C122.596603,111.876930 115.896454,118.557571 108.444420,125.987907 
	C103.664467,120.599464 98.425537,114.693611 93.186607,108.787758 
	C92.627739,109.145706 92.068878,109.503654 91.510010,109.861603 
	C91.510010,126.052094 91.510010,142.242584 91.510010,158.712585 
	C81.340492,158.712585 71.773590,158.712585 61.734749,158.712585 
	C61.734749,142.311386 61.734749,126.104935 61.734749,109.544037 
	C55.934559,115.506767 50.532665,121.060043 45.579098,126.152435 
	C38.003040,118.566643 31.248604,111.803520 24.186405,104.732246 
	C24.396833,104.490913 25.277115,103.354034 26.284962,102.344505 
	C41.943214,86.660248 57.596287,70.970596 73.330688,55.362980 
	C74.572678,54.131012 75.683258,50.987766 78.611671,54.114838 
z"/>
<path fill="#3D4149" opacity="1.000000" stroke="none" 
	d="
M201.739899,124.766563 
	C193.317001,132.955521 174.469452,133.351868 164.700241,127.882469 
	C156.054581,123.042114 152.093094,115.079430 151.807205,105.642479 
	C151.333847,90.016052 151.584030,74.367569 151.557297,58.728336 
	C151.556503,58.267750 151.869049,57.806637 152.064316,57.265961 
	C155.372940,57.265961 158.651810,57.265961 162.341431,57.265961 
	C162.341431,69.257874 162.321304,81.051369 162.352280,92.844734 
	C162.363205,97.001625 162.169754,101.195930 162.640900,105.307686 
	C163.954086,116.767799 170.309418,122.460548 181.302460,122.445732 
	C191.846588,122.431519 198.552307,116.601151 199.173187,105.139015 
	C199.928284,91.198959 199.550095,77.197441 199.657288,63.222469 
	C199.672272,61.269806 199.659348,59.316933 199.659348,57.275505 
	C203.513062,57.275505 206.787781,57.275505 209.826141,57.275505 
	C209.826141,74.750122 210.418625,92.042343 209.468430,109.249374 
	C209.179932,114.473885 204.631042,119.463120 201.739899,124.766563 
z"/>
<path fill="#3E434B" opacity="1.000000" stroke="none" 
	d="
M240.080170,81.978157 
	C251.474518,80.087250 260.997375,84.275139 266.076080,93.162056 
	C271.314484,102.328453 270.416199,115.023949 263.984131,122.727707 
	C256.241302,132.001373 247.208084,133.517349 231.349045,127.882278 
	C231.349045,132.689392 231.349045,137.289001 231.349045,141.888626 
	C231.349045,146.349594 231.349045,150.810577 231.349045,155.493805 
	C227.875610,155.493805 224.926102,155.493805 221.561432,155.493805 
	C221.561432,131.286865 221.561432,107.070908 221.561432,82.814377 
	C227.737137,81.122215 230.266495,81.612099 232.268890,84.899925 
	C234.745956,83.945938 237.209991,82.996964 240.080170,81.978157 
M254.477081,93.991135 
	C249.320694,89.450157 242.528030,88.446213 237.047028,91.415016 
	C231.268280,94.545097 228.344376,102.328003 229.849319,110.573967 
	C231.213211,118.047028 236.117111,122.685234 243.103378,123.109917 
	C250.363937,123.551277 256.282104,119.476067 258.359833,112.247467 
	C260.198212,105.851707 259.560486,99.777061 254.477081,93.991135 
z"/>
<path fill="#3C4149" opacity="1.000000" stroke="none" 
	d="
M348.215332,131.550201 
	C329.936279,130.979736 320.828186,116.527809 324.345337,99.624184 
	C326.795715,87.847626 337.301758,80.424789 349.390259,81.309357 
	C362.645874,82.279320 370.683624,89.958809 371.855042,102.882774 
	C372.049225,105.025330 371.882385,107.200615 371.882385,109.908844 
	C359.415009,109.908844 346.866150,109.908844 334.126923,109.908844 
	C334.378448,116.364243 337.686676,120.057289 342.836121,122.052414 
	C350.020996,124.836151 356.166931,122.711967 361.346741,117.063660 
	C363.628998,119.132065 365.804016,121.103294 368.064423,123.151917 
	C363.177734,130.170120 356.069153,131.277481 348.215332,131.550201 
M338.846863,101.853973 
	C346.244141,101.853973 353.641388,101.853973 361.061981,101.853973 
	C360.603027,94.007431 355.856323,89.767151 348.230713,89.704987 
	C340.103210,89.638725 334.899078,94.114075 334.515930,101.650337 
	C335.658386,101.718124 336.802338,101.786003 338.846863,101.853973 
z"/>
<path fill="#3D424A" opacity="1.000000" stroke="none" 
	d="
M302.149078,102.872391 
	C312.124054,105.668739 316.304382,111.120605 315.001160,119.231270 
	C313.843140,126.438171 305.041321,132.051270 295.621582,131.490723 
	C289.311188,131.115204 283.732605,128.956955 278.937225,124.139778 
	C281.044861,122.139046 283.077820,120.209236 285.328094,118.073112 
	C289.600403,121.862160 294.572021,124.318604 300.213745,122.295341 
	C302.625397,121.430466 305.557251,119.046097 306.164215,116.790245 
	C307.164276,113.073395 303.377777,112.082657 300.487549,111.254807 
	C297.613068,110.431473 294.639587,109.953102 291.766754,109.124908 
	C282.669525,106.502342 278.632751,101.173386 279.768890,93.462326 
	C280.832886,86.240944 288.378265,80.739021 296.861816,81.246201 
	C303.152161,81.622269 308.900970,83.540512 313.536804,88.193153 
	C311.445953,90.287422 309.402710,92.334015 308.357941,93.380486 
	C303.311676,92.190277 298.834381,90.501770 294.308868,90.360733 
	C292.344513,90.299515 290.280914,93.423058 288.262390,95.100075 
	C289.874664,96.907623 291.171967,99.307701 293.178192,100.374161 
	C295.740601,101.736282 298.875244,102.022018 302.149078,102.872391 
z"/>
<path fill="#3B4048" opacity="1.000000" stroke="none" 
	d="
M393.073547,74.000565 
	C393.073486,93.076103 393.073486,111.651726 393.073486,130.449005 
	C389.511047,130.449005 386.444031,130.449005 383.185547,130.449005 
	C383.185547,105.338249 383.185547,80.487518 383.185547,55.399632 
	C386.371887,55.399632 389.310181,55.399632 393.073608,55.399632 
	C393.073608,61.370575 393.073608,67.435616 393.073547,74.000565 
z"/>
<path fill="#3B4048" opacity="1.000000" stroke="none" 
	d="
M408.832489,61.117516 
	C408.832489,59.003490 408.832489,57.373150 408.832489,55.453537 
	C412.315735,55.453537 415.377258,55.453537 418.723938,55.453537 
	C418.723938,80.415367 418.723938,105.277000 418.723938,130.424133 
	C415.560059,130.424133 412.491760,130.424133 408.832489,130.424133 
	C408.832489,107.390038 408.832489,84.495621 408.832489,61.117516 
z"/>
<path fill="#FCFCFC" opacity="1.000000" stroke="none" 
	d="
M254.740601,94.255211 
	C259.560486,99.777061 260.198212,105.851707 258.359833,112.247467 
	C256.282104,119.476067 250.363937,123.551277 243.103378,123.109917 
	C236.117111,122.685234 231.213211,118.047028 229.849319,110.573967 
	C228.344376,102.328003 231.268280,94.545097 237.047028,91.415016 
	C242.528030,88.446213 249.320694,89.450157 254.740601,94.255211 
z"/>
<path fill="#F6F6F7" opacity="1.000000" stroke="none" 
	d="
M338.396576,101.853928 
	C336.802338,101.786003 335.658386,101.718124 334.515930,101.650337 
	C334.899078,94.114075 340.103210,89.638725 348.230713,89.704987 
	C355.856323,89.767151 360.603027,94.007431 361.061981,101.853973 
	C353.641388,101.853973 346.244141,101.853973 338.396576,101.853928 
z"/>
</svg>